HIERARCHY
ROOT Hips
{
	OFFSET 0.000000 0.000000 0.000000
	CHANNELS 6 Xposition Yposition Zposition Zrotation Yrotation Xrotation 
	JOINT LHipJoint
	{
		OFFSET 0.000000 0.000000 0.000000
		CHANNELS 3 Zrotation Yrotation Xrotation
		JOINT LeftUpLeg
		{
			OFFSET 1.363060 -1.794630 0.839290
			CHANNELS 3 Zrotation Yrotation Xrotation
			JOINT LeftLeg
			{
				OFFSET 2.448110 -6.726130 0.000000
				CHANNELS 3 Zrotation Yrotation Xrotation
				JOINT LeftFoot
				{
					OFFSET 2.562200 -7.039590 0.000000
					CHANNELS 3 Zrotation Yrotation Xrotation
					JOINT LeftToeBase
					{
						OFFSET 0.157640 -0.433110 2.322550
						CHANNELS 3 Zrotation Yrotation Xrotation
						End Site
						{
							OFFSET 0.000000 0.000000 0.000000
						}
					}
				}
			}
		}
	}
	JOINT RHipJoint
	{
		OFFSET 0.000000 0.000000 0.000000
		CHANNELS 3 Zrotation Yrotation Xrotation
		JOINT RightUpLeg
		{
			OFFSET -1.305520 -1.794630 0.839290
			CHANNELS 3 Zrotation Yrotation Xrotation
			JOINT RightLeg
			{
				OFFSET -2.542530 -6.985550 0.000000
				CHANNELS 3 Zrotation Yrotation Xrotation
				JOINT RightFoot
				{
					OFFSET -2.568260 -7.056230 0.000000
					CHANNELS 3 Zrotation Yrotation Xrotation
					JOINT RightToeBase
					{
						OFFSET -0.164730 -0.452590 2.363150
						CHANNELS 3 Zrotation Yrotation Xrotation
						End Site
						{
							OFFSET 0.000000 0.000000 0.000000
						}
					}
				}
			}
		}
	}
	JOINT LowerBack
	{
		OFFSET 0.000000 0.000000 0.000000
		CHANNELS 3 Zrotation Yrotation Xrotation
		JOINT Spine
		{
			OFFSET 0.028270 2.035590 -0.193380
			CHANNELS 3 Zrotation Yrotation Xrotation
			JOINT Spine1
			{
				OFFSET 0.056720 2.048850 -0.042750
				CHANNELS 3 Zrotation Yrotation Xrotation
				JOINT Neck
				{
					OFFSET 0.000000 0.000000 0.000000
					CHANNELS 3 Zrotation Yrotation Xrotation
					JOINT Neck1
					{
						OFFSET -0.054170 1.746240 0.172020
						CHANNELS 3 Zrotation Yrotation Xrotation
						JOINT Head
						{
							OFFSET 0.104070 1.761360 -0.123970
							CHANNELS 3 Zrotation Yrotation Xrotation
							End Site
							{
								OFFSET 0.000000 0.000000 0.000000
							}
						}
					}
				}
				JOINT LeftShoulder
				{
					OFFSET 0.000000 0.000000 0.000000
					CHANNELS 3 Zrotation Yrotation Xrotation
					JOINT LeftArm
					{
						OFFSET 3.362410 1.200890 -0.311210
						CHANNELS 3 Zrotation Yrotation Xrotation
						JOINT LeftForeArm
						{
							OFFSET 4.983000 -0.000000 -0.000000
							CHANNELS 3 Zrotation Yrotation Xrotation
							JOINT LeftHand
							{
								OFFSET 3.483560 -0.000000 -0.000000
								CHANNELS 3 Zrotation Yrotation Xrotation
								JOINT LeftFingerBase
								{
									OFFSET 0.000000 0.000000 0.000000
									CHANNELS 3 Zrotation Yrotation Xrotation
									JOINT LeftHandIndex1
									{
										OFFSET 0.715260 -0.000000 -0.000000
										CHANNELS 3 Zrotation Yrotation Xrotation
										End Site
										{
											OFFSET 0.000000 0.000000 0.000000
										}
									}
								}
								JOINT LThumb
								{
									OFFSET 0.000000 0.000000 0.000000
									CHANNELS 3 Zrotation Yrotation Xrotation
									End Site
									{
										OFFSET 0.000000 0.000000 0.000000
									}
								}
							}
						}
					}
				}
				JOINT RightShoulder
				{
					OFFSET 0.000000 0.000000 0.000000
					CHANNELS 3 Zrotation Yrotation Xrotation
					JOINT RightArm
					{
						OFFSET -3.136600 1.374050 -0.404650
						CHANNELS 3 Zrotation Yrotation Xrotation
						JOINT RightForeArm
						{
							OFFSET -5.241900 -0.000000 -0.000000
							CHANNELS 3 Zrotation Yrotation Xrotation
							JOINT RightHand
							{
								OFFSET -3.444170 -0.000000 -0.000000
								CHANNELS 3 Zrotation Yrotation Xrotation
								JOINT RightFingerBase
								{
									OFFSET 0.000000 0.000000 0.000000
									CHANNELS 3 Zrotation Yrotation Xrotation
									JOINT RightHandIndex1
									{
										OFFSET -0.622530 -0.000000 -0.000000
										CHANNELS 3 Zrotation Yrotation Xrotation
										End Site
										{
											OFFSET 0.000000 0.000000 0.000000
										}
									}
								}
								JOINT RThumb
								{
									OFFSET 0.000000 0.000000 0.000000
									CHANNELS 3 Zrotation Yrotation Xrotation
									End Site
									{
										OFFSET 0.000000 0.000000 0.000000
									}
								}
							}
						}
					}
				}
			}
		}
	}
}
MOTION
Frames: 12
Frame Time: 0.008333
1.586141 17.550257 30.495273 -125.181812 -79.356708 135.969933 -0.503680 -4.040158 -2.800956 -9.182506 4.803428 -22.654485 -0.136904 10.956419 27.617158 1.508246 -0.316213 4.352284 0.869000 -5.943600 -16.620900 -1.160567 4.415183 -3.358878 28.682523 -7.995257 -19.488449 1.361456 -9.137704 21.011567 -4.532786 13.532110 5.691560 -0.345300 3.775800 -10.446600 7.465732 4.084078 -8.099803 0.581310 4.364500 -3.596628 -1.521073 1.515806 -6.458270 -22.866549 -9.829303 11.076847 12.125630 -25.075364 3.829194 23.656300 -12.489900 2.230200 -9.179569 -8.487427 2.048733 -78.799857 12.617489 42.234565 16.896364 -23.524613 -4.470918 -0.209959 0.013533 -36.126221 16.533898 -12.451439 -3.738000 -7.125000 0.000000 0.000000 -7.320600 16.930400 4.912000 5.292029 4.515577 0.661514 78.640556 -7.451973 40.630411 -10.866240 20.854836 -2.571878 -0.227466 0.562540 23.330667 -8.198659 2.072900 -0.224300 7.125000 0.000000 0.000000 14.462400 -28.198600 6.091800 
1.587238 17.550147 30.495493 -125.131836 -79.408019 135.924550 -0.505604 -4.043477 -2.801498 -9.215702 4.791695 -22.659260 -0.143251 10.954762 27.605102 1.520383 -0.352084 4.355144 0.860200 -5.914200 -16.535700 -1.157515 4.417399 -3.360509 28.639372 -7.991510 -19.511536 1.354050 -9.151672 21.051909 -4.524254 13.467173 5.651314 -0.349700 3.799800 -10.514000 7.402175 4.076901 -8.082029 0.579771 4.365334 -3.594089 -1.493202 1.521699 -6.462060 -22.863927 -9.846113 11.081490 12.121894 -25.090210 3.817125 23.642100 -12.489500 2.221800 -9.177417 -8.485352 2.049955 -78.806057 12.594027 42.255818 16.889070 -23.516064 -4.468698 -0.213260 0.018672 -36.138108 16.593587 -12.504065 -3.769300 -7.125000 0.000000 0.000000 -7.279900 16.865100 4.894700 5.292522 4.522994 0.664197 78.692500 -7.427846 40.358865 -10.830936 20.808929 -2.563945 -0.231061 0.559279 23.543486 -8.168755 2.147382 -0.234300 7.125000 0.000000 0.000000 14.477100 -28.119500 6.126400 
1.587897 17.549708 30.496590 -124.923857 -79.459394 135.731127 -0.500363 -4.050124 -2.805022 -9.252475 4.857995 -22.716998 -0.144430 10.954092 27.608504 1.568370 -0.489088 4.373982 0.867200 -5.937800 -16.604100 -1.153356 4.418325 -3.359739 28.614989 -7.985859 -19.530122 1.351452 -9.155147 21.060194 -4.514542 13.397161 5.613112 -0.359100 3.849600 -10.653800 7.372501 4.048686 -8.079048 0.586058 4.330255 -3.593974 -1.465695 1.508248 -6.468040 -22.882913 -9.838713 11.076604 12.101033 -25.047013 3.825199 23.629000 -12.465500 2.203600 -9.172931 -8.482590 2.047479 -78.839882 12.595621 42.189165 16.884649 -23.510283 -4.466859 -0.210594 0.018832 -36.050575 16.571520 -12.484076 -3.757200 -7.125000 0.000000 0.000000 -7.296400 16.889200 4.902200 5.297367 4.528352 0.666588 78.687771 -7.412069 40.296360 -10.804227 20.773600 -2.554960 -0.229975 0.554966 23.655356 -8.222254 2.158207 -0.238000 7.125000 0.000000 0.000000 14.433200 -28.105200 6.111800 
1.588884 17.550367 30.498565 -124.477705 -79.483379 135.305237 -0.494277 -4.052399 -2.812019 -9.219950 4.783709 -22.717679 -0.147932 10.951870 27.600197 1.576364 -0.509958 4.400215 0.860900 -5.916600 -16.542600 -1.147535 4.420956 -3.358248 28.633509 -7.970941 -19.556101 1.351180 -9.160660 21.070556 -4.502867 13.329065 5.619706 -0.350900 3.806200 -10.532000 7.406630 4.053567 -8.066660 0.580941 4.334671 -3.593059 -1.496086 1.506098 -6.463973 -22.891112 -9.837177 11.080867 12.108440 -25.058458 3.827621 23.645400 -12.475400 2.218300 -9.177497 -8.489008 2.049793 -78.816321 12.573388 42.222689 16.886501 -23.509342 -4.466521 -0.214686 0.016774 -36.066821 16.612643 -12.444101 -3.756500 -7.125000 0.000000 0.000000 -7.264600 16.926200 4.874500 5.292747 4.526667 0.664717 78.740390 -7.374197 40.078032 -10.765523 20.725366 -2.544478 -0.231644 0.551448 23.818925 -8.208361 2.204153 -0.244600 7.125000 0.000000 0.000000 14.438000 -28.055000 6.131700 
1.589652 17.550476 30.499992 -124.142317 -79.514592 134.986448 -0.487668 -4.056095 -2.817611 -9.216221 4.776956 -22.744426 -0.148549 10.952121 27.603235 1.600138 -0.577517 4.414445 0.861800 -5.919700 -16.551500 -1.142678 4.422801 -3.356577 28.638761 -7.976436 -19.581472 1.350412 -9.163179 21.075193 -4.495664 13.284132 5.615334 -0.348700 3.794400 -10.498900 7.414049 4.049611 -8.055714 0.579296 4.329946 -3.592234 -1.505717 1.502316 -6.465053 -22.898460 -9.839273 11.089183 12.107212 -25.060058 3.826662 23.649300 -12.476100 2.218300 -9.178675 -8.490690 2.050869 -78.809452 12.559569 42.231667 16.885244 -23.506391 -4.465699 -0.216939 0.016436 -36.053692 16.641491 -12.424455 -3.758300 -7.125000 0.000000 0.000000 -7.243100 16.943200 4.857200 5.291995 4.527811 0.665024 78.762664 -7.353990 39.954586 -10.743684 20.698466 -2.538839 -0.233122 0.549117 23.918454 -8.203989 2.243277 -0.250200 7.125000 0.000000 0.000000 14.436500 -28.013200 6.145700 
1.590420 17.550257 30.501199 -123.765993 -79.539227 134.628454 -0.479106 -4.059447 -2.823634 -9.206054 4.781475 -22.777161 -0.147326 10.952739 27.610541 1.627884 -0.655923 4.428919 0.864600 -5.929200 -16.579000 -1.137916 4.424415 -3.354338 28.654735 -7.987077 -19.606797 1.350781 -9.163538 21.073589 -4.490113 13.250861 5.618467 -0.345000 3.774100 -10.442100 7.432386 4.048379 -8.042897 0.577320 4.327804 -3.591765 -1.521902 1.498438 -6.467859 -22.904178 -9.840852 11.101133 12.107648 -25.063720 3.826211 23.655500 -12.479000 2.219400 -9.180575 -8.492779 2.052073 -78.798324 12.546384 42.239945 16.882906 -23.502279 -4.464218 -0.218520 0.015716 -36.038805 16.658553 -12.401828 -3.756200 -7.125000 0.000000 0.000000 -7.229900 16.964800 4.844700 5.291083 4.527855 0.665006 78.773868 -7.341754 39.891637 -10.733898 20.687202 -2.536693 -0.234312 0.547948 23.959696 -8.198802 2.271952 -0.254200 7.125000 0.000000 0.000000 14.437100 -27.983200 6.156600 
1.591188 17.550037 30.502186 -123.387702 -79.560397 134.266303 -0.469640 -4.062482 -2.829598 -9.194170 4.792768 -22.812673 -0.144734 10.954282 27.622091 1.657740 -0.740528 4.439998 0.867200 -5.937800 -16.604200 -1.133558 4.425886 -3.352070 28.674842 -7.997862 -19.632499 1.351001 -9.164936 21.074125 -4.484721 13.219900 5.620192 -0.340800 3.751100 -10.377500 7.451016 4.049787 -8.027535 0.574869 4.329484 -3.591611 -1.540001 1.496093 -6.472539 -22.904137 -9.846079 11.116156 12.108999 -25.074138 3.824677 23.658600 -12.485000 2.221100 -9.182777 -8.494485 2.053543 -78.781174 12.533727 42.256232 16.880434 -23.498519 -4.462620 -0.220015 0.014959 -36.032202 16.672383 -12.381857 -3.754000 -7.125000 0.000000 0.000000 -7.219100 16.984000 4.834300 5.290442 4.527425 0.665086 78.770477 -7.339631 39.907071 -10.740750 20.697044 -2.539370 -0.235275 0.548479 23.924120 -8.188948 2.287793 -0.255900 7.125000 0.000000 0.000000 14.443200 -27.968000 6.164800 
1.592066 17.549379 30.502516 -122.983656 -79.570416 133.879785 -0.457893 -4.065064 -2.835891 -9.172580 4.821272 -22.857157 -0.139427 10.956402 27.640075 1.694415 -0.844341 4.452854 0.867900 -5.940300 -16.611200 -1.130112 4.426477 -3.349862 28.708512 -7.990076 -19.649411 1.352575 -9.165292 21.068521 -4.475574 13.169039 5.616344 -0.338700 3.739700 -10.345500 7.474925 4.052653 -8.009671 0.574554 4.331743 -3.592080 -1.553132 1.494356 -6.480515 -22.902170 -9.852574 11.130712 12.108877 -25.084481 3.824187 23.657200 -12.491100 2.222700 -9.184204 -8.495952 2.054704 -78.764426 12.522872 42.272585 16.878285 -23.495768 -4.461351 -0.220971 0.014346 -36.027829 16.679439 -12.366260 -3.751400 -7.125000 0.000000 0.000000 -7.213300 16.999300 4.827900 5.291179 4.526805 0.665250 78.747187 -7.348027 40.004904 -10.762965 20.726097 -2.546161 -0.235580 0.550532 23.817337 -8.180795 2.284186 -0.254800 7.125000 0.000000 0.000000 14.450400 -27.974000 6.165900 
1.593054 17.548721 30.502845 -122.584368 -79.581881 133.500871 -0.445639 -4.068559 -2.842803 -9.154018 4.852865 -22.909252 -0.133136 10.960372 27.663562 1.734908 -0.959614 4.464279 0.865500 -5.932200 -16.587900 -1.125985 4.426522 -3.347291 28.735857 -7.953344 -19.654100 1.355673 -9.163348 21.055119 -4.460004 13.078569 5.608194 -0.339000 3.741800 -10.351300 7.494935 4.055521 -7.989949 0.574147 4.334372 -3.593805 -1.564993 1.492775 -6.492934 -22.896770 -9.858177 11.143427 12.107232 -25.090924 3.826935 23.652400 -12.496300 2.224600 -9.185601 -8.497680 2.055431 -78.747785 12.514840 42.287013 16.876454 -23.493457 -4.460328 -0.221500 0.013917 -36.022603 16.682046 -12.354347 -3.748600 -7.125000 0.000000 0.000000 -7.210900 17.011600 4.824400 5.292096 4.526302 0.665177 78.714933 -7.361189 40.152545 -10.792422 20.763733 -2.554645 -0.235315 0.553123 23.669263 -8.178527 2.268452 -0.252100 7.125000 0.000000 0.000000 14.454500 -27.992900 6.161100 
1.594041 17.548062 30.502845 -122.155526 -79.586939 133.092629 -0.431848 -4.071826 -2.850273 -9.126507 4.884944 -22.964199 -0.125110 10.965491 27.692846 1.780748 -1.090359 4.479976 0.858100 -5.907200 -16.515500 -1.121944 4.425417 -3.344811 28.770347 -7.881732 -19.640716 1.360409 -9.159995 21.033081 -4.435180 12.935495 5.586081 -0.344300 3.770200 -10.431000 7.517335 4.057887 -7.966895 0.575374 4.335601 -3.596000 -1.572044 1.491098 -6.507897 -22.891413 -9.860906 11.153031 12.104926 -25.092367 3.833282 23.647100 -12.500300 2.227900 -9.186547 -8.500065 2.055877 -78.731530 12.508375 42.299660 16.875310 -23.492175 -4.459792 -0.222213 0.014014 -36.019566 16.690019 -12.349666 -3.749400 -7.125000 0.000000 0.000000 -7.204900 17.015200 4.819700 5.293293 4.525653 0.664666 78.680948 -7.375513 40.315385 -10.823588 20.802627 -2.563297 -0.234403 0.555911 23.513822 -8.180773 2.238840 -0.247600 7.125000 0.000000 0.000000 14.456500 -28.025900 6.150300 
1.595139 17.547404 30.502735 -121.709290 -79.591122 132.668006 -0.417705 -4.075448 -2.858415 -9.095869 4.909107 -23.020108 -0.116515 10.971825 27.725442 1.825894 -1.219681 4.495326 0.848400 -5.874700 -16.421200 -1.117348 4.423375 -3.342449 28.802288 -7.767230 -19.607936 1.366578 -9.155254 21.004010 -4.399783 12.731785 5.551510 -0.354000 3.822400 -10.577600 7.540136 4.059439 -7.941578 0.577271 4.335423 -3.598720 -1.576013 1.489091 -6.524947 -22.890786 -9.859449 11.160576 12.102972 -25.089357 3.842791 23.645100 -12.503800 2.234000 -9.187391 -8.503725 2.055936 -78.719118 12.503077 42.305581 16.874986 -23.491595 -4.459910 -0.223446 0.014785 -36.010482 16.710552 -12.350523 -3.755000 -7.125000 0.000000 0.000000 -7.190400 17.011300 4.810500 5.294018 4.524866 0.663501 78.655785 -7.384208 40.436903 -10.844930 20.828542 -2.568629 -0.233186 0.557845 23.405397 -8.186827 2.206404 -0.243000 7.125000 0.000000 0.000000 14.455800 -28.060800 6.137600 
1.596346 17.546745 30.502625 -121.252146 -79.595080 132.231389 -0.403359 -4.079290 -2.866965 -9.063424 4.929566 -23.075494 -0.107543 10.978977 27.760451 1.872821 -1.354503 4.513507 0.836000 -5.832600 -16.299400 -1.112833 4.420901 -3.339966 28.835277 -7.648307 -19.571520 1.373063 -9.150005 20.972984 -4.361552 12.515740 5.513724 -0.364900 3.880600 -10.740900 7.562834 4.057863 -7.913441 0.580532 4.330819 -3.601330 -1.575007 1.485696 -6.542826 -22.898474 -9.853741 11.166422 12.101466 -25.083125 3.854357 23.648100 -12.506700 2.242800 -9.187715 -8.508645 2.055398 -78.716800 12.498181 42.295496 16.875011 -23.490760 -4.460388 -0.224876 0.015989 -35.995560 16.737365 -12.353809 -3.762900 -7.125000 0.000000 0.000000 -7.171500 17.003900 4.798800 5.294412 4.523974 0.661866 78.640710 -7.386406 40.504809 -10.855227 20.840000 -2.570663 -0.231648 0.558832 23.361367 -8.196976 2.169929 -0.238100 7.125000 0.000000 0.000000 14.452000 -28.098400 6.122600 
